<mxfile host="app.diagrams.net" modified="2023-09-26T12:41:26.961Z" agent="Mozilla/5.0 (Windows NT 10.0; Win64; x64) AppleWebKit/537.36 (KHTML, like Gecko) Chrome/117.0.0.0 Safari/537.36" etag="x_T4KImGU2IVqbf6Dejr" version="21.8.2" type="device">
  <diagram name="Page-1" id="4fFE1VatFzigE7AKcNfh">
    <mxGraphModel dx="1434" dy="790" grid="1" gridSize="10" guides="1" tooltips="1" connect="1" arrows="1" fold="1" page="1" pageScale="1" pageWidth="850" pageHeight="1100" math="0" shadow="0">
      <root>
        <mxCell id="0" />
        <mxCell id="1" parent="0" />
        <mxCell id="F0wohXSb-05BoiARy3NX-1" value="start" style="ellipse;whiteSpace=wrap;html=1;" vertex="1" parent="1">
          <mxGeometry x="350" y="40" width="120" height="80" as="geometry" />
        </mxCell>
        <mxCell id="F0wohXSb-05BoiARy3NX-14" value="" style="edgeStyle=orthogonalEdgeStyle;rounded=0;orthogonalLoop=1;jettySize=auto;html=1;" edge="1" parent="1" source="F0wohXSb-05BoiARy3NX-3" target="F0wohXSb-05BoiARy3NX-4">
          <mxGeometry relative="1" as="geometry">
            <Array as="points">
              <mxPoint x="390" y="310" />
              <mxPoint x="390" y="310" />
            </Array>
          </mxGeometry>
        </mxCell>
        <mxCell id="F0wohXSb-05BoiARy3NX-3" value="var n" style="shape=parallelogram;perimeter=parallelogramPerimeter;whiteSpace=wrap;html=1;fixedSize=1;" vertex="1" parent="1">
          <mxGeometry x="340" y="190" width="120" height="60" as="geometry" />
        </mxCell>
        <mxCell id="F0wohXSb-05BoiARy3NX-61" style="edgeStyle=orthogonalEdgeStyle;rounded=0;orthogonalLoop=1;jettySize=auto;html=1;" edge="1" parent="1" source="F0wohXSb-05BoiARy3NX-4">
          <mxGeometry relative="1" as="geometry">
            <mxPoint x="670" y="340" as="targetPoint" />
            <Array as="points">
              <mxPoint x="558" y="350" />
              <mxPoint x="558" y="341" />
            </Array>
          </mxGeometry>
        </mxCell>
        <mxCell id="F0wohXSb-05BoiARy3NX-62" value="true" style="edgeLabel;html=1;align=center;verticalAlign=middle;resizable=0;points=[];" vertex="1" connectable="0" parent="F0wohXSb-05BoiARy3NX-61">
          <mxGeometry x="0.299" y="-1" relative="1" as="geometry">
            <mxPoint as="offset" />
          </mxGeometry>
        </mxCell>
        <mxCell id="F0wohXSb-05BoiARy3NX-4" value="n%3==0" style="rhombus;whiteSpace=wrap;html=1;" vertex="1" parent="1">
          <mxGeometry x="355" y="310" width="90" height="80" as="geometry" />
        </mxCell>
        <mxCell id="F0wohXSb-05BoiARy3NX-19" style="edgeStyle=orthogonalEdgeStyle;rounded=0;orthogonalLoop=1;jettySize=auto;html=1;entryX=0.583;entryY=-0.067;entryDx=0;entryDy=0;entryPerimeter=0;" edge="1" parent="1" source="F0wohXSb-05BoiARy3NX-1" target="F0wohXSb-05BoiARy3NX-3">
          <mxGeometry relative="1" as="geometry" />
        </mxCell>
        <mxCell id="F0wohXSb-05BoiARy3NX-23" value="end" style="ellipse;whiteSpace=wrap;html=1;" vertex="1" parent="1">
          <mxGeometry x="355" y="720" width="120" height="80" as="geometry" />
        </mxCell>
        <mxCell id="F0wohXSb-05BoiARy3NX-27" style="edgeStyle=orthogonalEdgeStyle;rounded=0;orthogonalLoop=1;jettySize=auto;html=1;" edge="1" parent="1" source="F0wohXSb-05BoiARy3NX-26">
          <mxGeometry relative="1" as="geometry">
            <mxPoint x="640" y="610" as="targetPoint" />
          </mxGeometry>
        </mxCell>
        <mxCell id="F0wohXSb-05BoiARy3NX-31" value="true" style="edgeLabel;html=1;align=center;verticalAlign=middle;resizable=0;points=[];" vertex="1" connectable="0" parent="F0wohXSb-05BoiARy3NX-27">
          <mxGeometry x="-0.2298" y="2" relative="1" as="geometry">
            <mxPoint as="offset" />
          </mxGeometry>
        </mxCell>
        <mxCell id="F0wohXSb-05BoiARy3NX-26" value="n%5==0" style="rhombus;whiteSpace=wrap;html=1;" vertex="1" parent="1">
          <mxGeometry x="670" y="330" width="80" height="80" as="geometry" />
        </mxCell>
        <mxCell id="F0wohXSb-05BoiARy3NX-28" value="hem 3e hem 5e bolunur" style="shape=document;whiteSpace=wrap;html=1;boundedLbl=1;" vertex="1" parent="1">
          <mxGeometry x="590" y="620" width="120" height="80" as="geometry" />
        </mxCell>
        <mxCell id="F0wohXSb-05BoiARy3NX-29" style="edgeStyle=orthogonalEdgeStyle;rounded=0;orthogonalLoop=1;jettySize=auto;html=1;entryX=1.017;entryY=0.688;entryDx=0;entryDy=0;entryPerimeter=0;" edge="1" parent="1" source="F0wohXSb-05BoiARy3NX-28" target="F0wohXSb-05BoiARy3NX-23">
          <mxGeometry relative="1" as="geometry">
            <Array as="points">
              <mxPoint x="650" y="760" />
              <mxPoint x="477" y="760" />
            </Array>
          </mxGeometry>
        </mxCell>
        <mxCell id="F0wohXSb-05BoiARy3NX-48" style="edgeStyle=orthogonalEdgeStyle;rounded=0;orthogonalLoop=1;jettySize=auto;html=1;entryX=0.717;entryY=0;entryDx=0;entryDy=0;entryPerimeter=0;" edge="1" parent="1" source="F0wohXSb-05BoiARy3NX-42" target="F0wohXSb-05BoiARy3NX-23">
          <mxGeometry relative="1" as="geometry">
            <mxPoint x="440" y="710" as="targetPoint" />
          </mxGeometry>
        </mxCell>
        <mxCell id="F0wohXSb-05BoiARy3NX-42" value="3e bolunur 5e bolunmur" style="shape=document;whiteSpace=wrap;html=1;boundedLbl=1;" vertex="1" parent="1">
          <mxGeometry x="390" y="470" width="120" height="80" as="geometry" />
        </mxCell>
        <mxCell id="F0wohXSb-05BoiARy3NX-46" style="edgeStyle=orthogonalEdgeStyle;rounded=0;orthogonalLoop=1;jettySize=auto;html=1;entryX=1.017;entryY=0.338;entryDx=0;entryDy=0;entryPerimeter=0;" edge="1" parent="1" source="F0wohXSb-05BoiARy3NX-26" target="F0wohXSb-05BoiARy3NX-42">
          <mxGeometry relative="1" as="geometry">
            <Array as="points">
              <mxPoint x="512" y="390" />
            </Array>
          </mxGeometry>
        </mxCell>
        <mxCell id="F0wohXSb-05BoiARy3NX-47" value="false" style="edgeLabel;html=1;align=center;verticalAlign=middle;resizable=0;points=[];" vertex="1" connectable="0" parent="F0wohXSb-05BoiARy3NX-46">
          <mxGeometry x="0.2084" y="-1" relative="1" as="geometry">
            <mxPoint as="offset" />
          </mxGeometry>
        </mxCell>
        <mxCell id="F0wohXSb-05BoiARy3NX-57" style="edgeStyle=orthogonalEdgeStyle;rounded=0;orthogonalLoop=1;jettySize=auto;html=1;" edge="1" parent="1" source="F0wohXSb-05BoiARy3NX-49">
          <mxGeometry relative="1" as="geometry">
            <mxPoint x="220" y="590" as="targetPoint" />
          </mxGeometry>
        </mxCell>
        <mxCell id="F0wohXSb-05BoiARy3NX-60" value="false" style="edgeLabel;html=1;align=center;verticalAlign=middle;resizable=0;points=[];" vertex="1" connectable="0" parent="F0wohXSb-05BoiARy3NX-57">
          <mxGeometry x="-0.3701" y="2" relative="1" as="geometry">
            <mxPoint as="offset" />
          </mxGeometry>
        </mxCell>
        <mxCell id="F0wohXSb-05BoiARy3NX-49" value="n%5==0" style="rhombus;whiteSpace=wrap;html=1;" vertex="1" parent="1">
          <mxGeometry x="180" y="320" width="80" height="80" as="geometry" />
        </mxCell>
        <mxCell id="F0wohXSb-05BoiARy3NX-50" style="edgeStyle=orthogonalEdgeStyle;rounded=0;orthogonalLoop=1;jettySize=auto;html=1;entryX=0.95;entryY=0.413;entryDx=0;entryDy=0;entryPerimeter=0;" edge="1" parent="1" source="F0wohXSb-05BoiARy3NX-4" target="F0wohXSb-05BoiARy3NX-49">
          <mxGeometry relative="1" as="geometry" />
        </mxCell>
        <mxCell id="F0wohXSb-05BoiARy3NX-51" value="false" style="edgeLabel;html=1;align=center;verticalAlign=middle;resizable=0;points=[];" vertex="1" connectable="0" parent="F0wohXSb-05BoiARy3NX-50">
          <mxGeometry x="-0.0686" y="-1" relative="1" as="geometry">
            <mxPoint as="offset" />
          </mxGeometry>
        </mxCell>
        <mxCell id="F0wohXSb-05BoiARy3NX-56" style="edgeStyle=orthogonalEdgeStyle;rounded=0;orthogonalLoop=1;jettySize=auto;html=1;entryX=0;entryY=0.5;entryDx=0;entryDy=0;" edge="1" parent="1" source="F0wohXSb-05BoiARy3NX-52" target="F0wohXSb-05BoiARy3NX-23">
          <mxGeometry relative="1" as="geometry">
            <Array as="points">
              <mxPoint x="80" y="760" />
            </Array>
          </mxGeometry>
        </mxCell>
        <mxCell id="F0wohXSb-05BoiARy3NX-52" value="3e bolunmur 5e bolunur" style="shape=document;whiteSpace=wrap;html=1;boundedLbl=1;" vertex="1" parent="1">
          <mxGeometry x="20" y="330" width="120" height="80" as="geometry" />
        </mxCell>
        <mxCell id="F0wohXSb-05BoiARy3NX-54" style="edgeStyle=orthogonalEdgeStyle;rounded=0;orthogonalLoop=1;jettySize=auto;html=1;entryX=1.017;entryY=0.388;entryDx=0;entryDy=0;entryPerimeter=0;" edge="1" parent="1" source="F0wohXSb-05BoiARy3NX-49" target="F0wohXSb-05BoiARy3NX-52">
          <mxGeometry relative="1" as="geometry" />
        </mxCell>
        <mxCell id="F0wohXSb-05BoiARy3NX-55" value="true" style="edgeLabel;html=1;align=center;verticalAlign=middle;resizable=0;points=[];" vertex="1" connectable="0" parent="F0wohXSb-05BoiARy3NX-54">
          <mxGeometry x="-0.076" y="-6" relative="1" as="geometry">
            <mxPoint as="offset" />
          </mxGeometry>
        </mxCell>
        <mxCell id="F0wohXSb-05BoiARy3NX-59" style="edgeStyle=orthogonalEdgeStyle;rounded=0;orthogonalLoop=1;jettySize=auto;html=1;" edge="1" parent="1" source="F0wohXSb-05BoiARy3NX-58" target="F0wohXSb-05BoiARy3NX-23">
          <mxGeometry relative="1" as="geometry" />
        </mxCell>
        <mxCell id="F0wohXSb-05BoiARy3NX-58" value="ne 3e ne 5 e bolunmur" style="shape=document;whiteSpace=wrap;html=1;boundedLbl=1;" vertex="1" parent="1">
          <mxGeometry x="180" y="590" width="120" height="80" as="geometry" />
        </mxCell>
      </root>
    </mxGraphModel>
  </diagram>
</mxfile>
